<?xml version="1.0" encoding="utf-8"?>
<svg xmlns="http://www.w3.org/2000/svg" viewBox="0 0 500 500">
  <path d="M 244.241 204.66 L 260.366 204.66 L 260.366 233.327 L 244.241 233.327 L 244.241 204.66 Z M 238.866 212.424 L 244.241 212.424 L 244.241 233.327 L 238.866 233.327 L 238.866 212.424 Z M 260.366 212.424 L 265.741 212.424 L 265.741 233.327 L 260.366 233.327 L 260.366 212.424 Z" fill="white" style="stroke-width: 1;"/>
  <path d="M 248.421 223.771 L 256.185 223.771 L 256.185 233.327 L 248.421 233.327 L 248.421 223.771 Z" fill="#92D3F5" style="stroke-width: 1;"/>
  <path d="M 256.783 211.23 L 253.796 211.23 L 253.796 208.244 L 250.81 208.244 L 250.81 211.23 L 247.824 211.23 L 247.824 214.216 L 250.81 214.216 L 250.81 217.202 L 253.796 217.202 L 253.796 214.216 L 256.783 214.216 L 256.783 211.23 Z" fill="#EA5A47" style="stroke-width: 1;"/>
  <path d="M 240.956 215.41 L 242.151 215.41 L 242.151 218.396 L 240.956 218.396 L 240.956 215.41 Z M 240.956 221.383 L 242.151 221.383 L 242.151 224.369 L 240.956 224.369 L 240.956 221.383 Z M 240.956 227.355 L 242.151 227.355 L 242.151 230.341 L 240.956 230.341 L 240.956 227.355 Z M 262.456 215.41 L 263.651 215.41 L 263.651 218.396 L 262.456 218.396 L 262.456 215.41 Z M 262.456 221.383 L 263.651 221.383 L 263.651 224.369 L 262.456 224.369 L 262.456 221.383 Z M 262.456 227.355 L 263.651 227.355 L 263.651 230.341 L 262.456 230.341 L 262.456 227.355 Z" stroke="#92D3F5" stroke-width="0.5" stroke-miterlimit="10" stroke-linecap="round" stroke-linejoin="round" style="stroke-width: 0.5;"/>
</svg>