<?xml version="1.0" encoding="utf-8"?>
<svg xmlns="http://www.w3.org/2000/svg" viewBox="0 0 500 500">
  <path d="M 227.358 160.616 L 342.272 160.616 L 342.272 315.705 L 227.358 315.705 L 227.358 160.616 Z M 189.051 202.618 L 227.358 202.618 L 227.358 315.705 L 189.051 315.705 L 189.051 202.618 Z M 342.272 202.618 L 380.577 202.618 L 380.577 315.705 L 342.272 315.705 L 342.272 202.618 Z" fill="white" style="stroke-width: 1;"/>
  <path d="M 257.146 264.006 L 312.474 264.006 L 312.474 315.705 L 257.146 315.705 L 257.146 264.006 Z" fill="#92D3F5" style="stroke-width: 1;"/>
  <path d="M 316.739 196.159 L 295.454 196.159 L 295.454 180.002 L 274.167 180.002 L 274.167 196.159 L 252.89 196.159 L 252.89 212.315 L 274.167 212.315 L 274.167 228.468 L 295.454 228.468 L 295.454 212.315 L 316.739 212.315 L 316.739 196.159 Z" fill="#EA5A47" style="stroke-width: 1;"/>
  <path d="M 203.949 218.774 L 212.461 218.774 L 212.461 234.928 L 203.949 234.928 L 203.949 218.774 Z M 203.949 251.088 L 212.461 251.088 L 212.461 267.241 L 203.949 267.241 L 203.949 251.088 Z M 203.949 283.394 L 212.461 283.394 L 212.461 299.55 L 203.949 299.55 L 203.949 283.394 Z M 357.168 218.774 L 365.68 218.774 L 365.68 234.928 L 357.168 234.928 L 357.168 218.774 Z M 357.168 251.088 L 365.68 251.088 L 365.68 267.241 L 357.168 267.241 L 357.168 251.088 Z M 357.168 283.394 L 365.68 283.394 L 365.68 299.55 L 357.168 299.55 L 357.168 283.394 Z" stroke="#92D3F5" stroke-width="0.5" stroke-miterlimit="10" stroke-linecap="round" stroke-linejoin="round" style="stroke-width: 0.5; fill: rgb(255, 255, 255);"/>
</svg>